<svg width="200" height="200" viewBox="0 0 200 200" fill="none" xmlns="http://www.w3.org/2000/svg">
<path d="M84.6494 4.12414L24.6631 38.7419C15.1653 44.2408 9.29166 54.3637 9.29166 65.3614V134.639C9.29166 145.595 15.1653 155.759 24.6631 161.258L84.6494 195.876C94.1472 201.375 105.853 201.375 115.351 195.876L175.337 161.258C184.835 155.759 190.708 145.636 190.708 134.639V65.3614C190.708 54.4053 184.835 44.2408 175.337 38.7419L115.351 4.12414C105.853 -1.37471 94.1472 -1.37471 84.6494 4.12414Z" fill="url(#paint0_linear_18_4)"/>
<path d="M152.458 61.0833L107.5 35.125C105.458 33.9167 102.708 33.3333 100 33.3333C97.2917 33.3333 94.5834 33.9167 92.5 35.125L47.5417 61.0833C43.4167 63.4583 40.0417 69.2917 40.0417 74.0417V125.958C40.0417 130.708 43.4167 136.542 47.5417 138.917L92.5 164.875C94.5417 166.083 97.2917 166.667 100 166.667C102.708 166.667 105.417 166.083 107.5 164.875L152.458 138.917C156.583 136.542 159.958 130.708 159.958 125.958V74.0417C159.958 69.2917 156.583 63.4583 152.458 61.0833ZM101.208 154.125C101.208 154.125 100.625 154.25 100.042 154.25C99.4584 154.25 99.0417 154.167 98.875 154.125L53.7917 128.083C53.3334 127.667 52.75 126.625 52.625 126.042V73.9583C52.75 73.375 53.375 72.3333 53.7917 71.9167L98.875 45.875C98.875 45.875 99.4584 45.75 100.042 45.75C100.625 45.75 101.042 45.8333 101.208 45.875L146.292 71.9167C146.75 72.3333 147.333 73.375 147.458 73.9583V120.167L112.542 100V94.5C112.542 93.4167 111.958 92.4583 111.042 91.9167L101.542 86.4167C101.083 86.1667 100.542 86 100.042 86C99.5417 86 99 86.125 98.5417 86.4167L89.0417 91.9167C88.125 92.4583 87.5417 93.4583 87.5417 94.5V105.458C87.5417 106.542 88.125 107.5 89.0417 108.042L98.5417 113.542C99 113.792 99.5417 113.958 100.042 113.958C100.542 113.958 101.083 113.833 101.542 113.542L106.292 110.792L141.208 130.958L101.208 154.042V154.125Z" fill="white"/>
<defs>
<linearGradient id="paint0_linear_18_4" x1="180.491" y1="-14.9486" x2="29.4615" y2="200.704" gradientUnits="userSpaceOnUse">
<stop stop-color="#A7F8FF"/>
<stop offset="0.03" stop-color="#9DF1FF"/>
<stop offset="0.08" stop-color="#84E1FF"/>
<stop offset="0.15" stop-color="#5AC7FF"/>
<stop offset="0.22" stop-color="#21A2FF"/>
<stop offset="0.26" stop-color="#008DFF"/>
<stop offset="0.66" stop-color="#7F33FF"/>
<stop offset="0.99" stop-color="#39127D"/>
</linearGradient>
</defs>
</svg>
